<?xml version="1.0" encoding="UTF-8"?>
<svg id="Layer_2" xmlns="http://www.w3.org/2000/svg" version="1.1" viewBox="0 0 538.4 187.3">
  <!-- Generator: Adobe Illustrator 29.7.1, SVG Export Plug-In . SVG Version: 2.1.1 Build 8)  -->
  <path d="M396.8,104h-.1.1ZM380.6,73.3c-.2-6.9-3.2-12-7.3-15.3h0c-4.1-3.4-9.3-5-13.7-5h-66.2c-1.9,0-3.4,1.5-3.4,3.4v74.5c0,1.9,1.5,3.4,3.4,3.4l8.2-1.7c1.9,0,3.4-1.5,3.4-3.4l.5-9.9.8-15.3,1.6-30.7.2-3.4c.3-1.6,1.8-3.2,3.3-3.5h47.6c1.4,0,7.1,1.1,8.1,6.8h0c.1.6.1,1.1.1,1.8,0,4.3-3.6,7.5-6.8,8.1-2.8.6-31.3,5.2-31.3,5.2-1.3.2-7.5,1.7-7.5,8.5s1.7,5.3,3.8,7h0c1.4,1.2,3.1,2.3,4.6,3.7l13.8,11.6,14.3,12c3.6,3.1,2.8,2.9,7.8,2.9h8c3.1,0,3.4-3.6,1.9-4.7l-11.4-10.3-16.3-14.7c-.1,0-.2-.2-.2-.3-.1,0-.2-.2-.3-.4h0c-.3-.4-.4-1-.4-1.5,0-1.4,1-2.6,2.2-2.9.1,0,.1,0,.2,0,8.8-2.9,5.8-1.8,16.6-5.6,8.9-3.1,14.3-10.6,14.3-19.8.2.2,0-.1,0-.4h0ZM441.3,119.3l-36.4-1.9c-5,0-9.5-3.5-9.5-8.3s.4-3.6,1.3-5.1c1.5-2.4,4.6-4.1,9.8-4.2l59.1-3.6c1.9,0,3.4,1.9,3.4,3.8h.1l.2,4.1.6,10.5c-.2,2.2-1.1,3.8-2.7,4.8h0c-.8.6-1.8.9-3,1.2l-22.9-1.3ZM383,119.4h0c3.7,8.7,12.2,15.1,22.4,15.1h62.8c14.1.2,18.6-3,18.7-15.1h0c0-2.5-.1-5.3-.4-8.5v-.5c-.1,0-.7-6.3-.7-6.3l-2.7-26.9c0-1.3-.1-2.5-.3-3.8h0c-1-6.2-4.4-11.6-9.3-15.3h0c-4.2-3.1-9.4-5-15.2-5h-67.4c-1.7,0-3.1,1.4-3.1,3.1s.2,1.2.5,1.6v.3c.1,0,2.4,5,2.4,5,1.1,2.5,2,3.4,3.9,3.4h63.5c4.5.1,8.2,2.8,8.8,6.9.1.4.1.9.1,1.4,0,4.8-4,6.1-8.9,6.3l-54.8,5.2c-12.1,1.6-19.4,9.6-21.7,17.8h-.1c-.5,1.8-.8,3.7-.8,5.4.3,3.4,1,6.8,2.3,9.9M282.4,52.9h-88.2c-1.7,0-3.1,1.4-3.1,3.1v7.2h0c0,1.8,1.4,3.2,3.1,3.2h33.1v65c0,1.7,1.4,3.1,3.1,3.1h8.9c1.6,0,3-1.3,3.1-2.9v-.5l.9-11.6,1.2-15.3,2.4-30.7.6-7.1h31.3c1.9,0,2.7-.9,3.9-3.4l2.2-4.8.2-.4c.3-.5.5-1,.5-1.6-.2-1.9-1.5-3.3-3.2-3.3M156.4,110.1c0-2.1-.2-4.1-.8-6.1h0c-2.3-8.6-9.6-16-20.3-17.6l-60-5.8c-1.8-.1-6.2-2.1-6.2-7v-.2c.1-3.2,2.2-6.9,7.5-6.9h71.4c1.9,0,2.7-.9,3.9-3.4l2.3-5,.2-.4c.3-.5.5-1,.5-1.6,0-1.7-1.4-3.1-3.1-3.1h-74.4c-4-.1-9.2,1.6-13.5,5h0c-4.3,3.4-7.7,8.5-8.2,15.3h0c0,.6,0,1.3,0,2,.2,13.7,11,21.3,21.2,21.9,7.3.4,55.8,2.6,55.8,2.6,3.9.4,6.5,1.9,8,4.2h0c.9,1.5,1.4,3.2,1.4,5.1,0,4.8-4.3,8.2-9.3,8.4l-40.6,1.9-32.9,1.5c-1.9,0-2.7.9-3.9,3.4l-2.4,5.3c-.3.5-.5,1-.5,1.6,0,1.4.9,2.5,2.2,2.9,0,0,.3,0,.6,0h76.6c10.3,0,18.9-6.3,22.6-15h0-.6.4c1.3-2.7,2-5.8,2.1-9.1M182.6,52.9h-14.3c-1.9,0-3.1,1.5-3.1,3.2v75.2c0,1.9,1.5,3,3.4,3h8.2c1.9,0,3.2-1.1,3.4-3l.9-12,1.1-15.3,2.3-30.7,1.1-15.3.2-2.1c0-1.2-.9-3-3.2-3"/>
</svg>